<svg width="116" height="91" viewBox="0 0 116 91" fill="none" xmlns="http://www.w3.org/2000/svg">
<path d="M2.12875 65.88C1.22208 65.88 0.76875 65.3733 0.76875 64.36C0.76875 64.2 0.822083 63.9067 0.92875 63.48C2.15542 58.7333 4.28875 54.2533 7.32875 50.04C10.4221 45.8267 14.0488 41.8 18.2088 37.96C22.3688 34.12 26.7688 30.3333 31.4088 26.6C36.1021 22.8667 40.6621 19.1067 45.0888 15.32C44.3954 15.5333 43.6221 15.72 42.7688 15.88C41.9688 16.04 41.0888 16.2267 40.1288 16.44C39.4888 16.5467 38.3954 16.7067 36.8488 16.92C35.3021 17.1333 33.4888 17.32 31.4088 17.48C29.3288 17.64 27.1688 17.72 24.9288 17.72C22.3154 17.72 19.7288 17.56 17.1688 17.24C14.6621 16.8667 12.5288 16.2533 10.7688 15.4C9.00875 14.4933 7.91542 13.2667 7.48875 11.72C7.43542 11.5067 7.38208 11.32 7.32875 11.16C7.32875 11 7.32875 10.8133 7.32875 10.6C7.32875 9.32 7.80875 8.22666 8.76875 7.32C9.72875 6.41333 10.5021 5.90666 11.0888 5.8C11.3554 5.74666 11.5688 5.72 11.7287 5.72C11.8888 5.66666 12.0488 5.64 12.2088 5.64C12.6888 5.64 12.8221 5.85333 12.6088 6.28C12.3954 6.65333 11.8354 7.29333 10.9288 8.2C9.91542 9.21333 9.40875 10.12 9.40875 10.92C9.40875 11.7733 9.99542 12.4667 11.1688 13C12.3421 13.5333 13.9154 13.9333 15.8888 14.2C17.8621 14.4133 20.0488 14.52 22.4488 14.52C25.0088 14.52 27.6221 14.4133 30.2888 14.2C33.0088 13.9867 35.6221 13.72 38.1288 13.4C40.6354 13.08 42.8221 12.7333 44.6888 12.36C46.5554 11.9333 47.9154 11.5333 48.7688 11.16C49.3021 10.8933 49.8888 11.1067 50.5288 11.8C51.1688 12.4933 51.4888 13.3467 51.4888 14.36C51.4888 14.8933 51.3288 15.48 51.0088 16.12C50.6888 16.7067 50.1021 17.24 49.2488 17.72C46.2088 19.5333 42.9554 21.5067 39.4888 23.64C36.0221 25.7733 32.5554 28.1467 29.0888 30.76C25.6221 33.3733 22.3154 36.28 19.1688 39.48C16.0221 42.6267 13.2221 46.1467 10.7688 50.04C8.31542 53.88 6.39542 58.12 5.00875 62.76C6.55542 61.8 8.58208 60.7067 11.0888 59.48C13.5954 58.2533 16.3154 57.08 19.2488 55.96C22.2354 54.7867 25.2488 53.8267 28.2888 53.08C31.3288 52.3333 34.1554 51.96 36.7688 51.96C39.6488 51.96 41.7554 52.3333 43.0888 53.08C44.4754 53.7733 45.3821 54.6267 45.8088 55.64C46.2354 56.6533 46.4488 57.6667 46.4488 58.68C46.4488 58.9467 46.4221 59.2133 46.3688 59.48C46.3688 59.7467 46.3688 60.0133 46.3688 60.28C46.3154 61.1333 45.9954 61.8533 45.4088 62.44C44.8221 63.0267 44.3154 63.32 43.8888 63.32C43.6754 63.32 43.5688 63.1867 43.5688 62.92C43.5688 62.6533 43.7021 62.28 43.9688 61.8C44.4488 61 44.6888 60.28 44.6888 59.64C44.6888 58.52 43.9954 57.72 42.6088 57.24C41.2221 56.76 39.3821 56.52 37.0888 56.52C34.7421 56.52 32.1021 56.7333 29.1688 57.16C26.2354 57.5867 23.2488 58.2 20.2088 59C17.1688 59.7467 14.2888 60.5733 11.5688 61.48C8.84875 62.44 6.55542 63.4533 4.68875 64.52C3.88875 65.4267 3.03542 65.88 2.12875 65.88ZM50.4831 62.12C50.1098 62.28 49.6831 62.0667 49.2031 61.48C48.7765 60.8933 48.5631 60.3067 48.5631 59.72C48.5631 59.1867 48.7765 58.7333 49.2031 58.36C49.6298 57.9867 49.8965 57.7733 50.0031 57.72C50.2165 57.4533 50.6965 57.1067 51.4431 56.68C52.2431 56.2 52.9898 55.8 53.6831 55.48C54.4298 55.16 54.8298 55.1067 54.8831 55.32C54.9898 55.5333 54.9098 55.72 54.6431 55.88C54.4298 55.9867 54.1365 56.3067 53.7631 56.84C53.3898 57.32 53.0165 58.2267 52.6431 59.56C52.4831 60.04 52.2698 60.52 52.0031 61C51.7365 61.4267 51.2298 61.8 50.4831 62.12ZM85.53 91C83.0767 91 80.7033 89.9867 78.41 87.96C76.17 85.9333 74.2767 83 72.73 79.16C71.2367 75.32 70.3567 70.68 70.09 65.24C68.4367 65.4 66.9167 65.48 65.53 65.48C62.4367 65.48 60.17 65.08 58.73 64.28C57.3433 63.48 56.65 62.44 56.65 61.16C56.65 59.88 57.2633 58.4667 58.49 56.92C59.7167 55.3733 61.4233 53.8267 63.61 52.28C65.7967 50.68 68.3567 49.24 71.29 47.96C72.3033 42.52 73.93 36.6533 76.17 30.36C78.4633 24.0133 81.53 17.2933 85.37 10.2C85.7433 9.50667 86.3033 9.16 87.05 9.16C87.53 9.16 87.9567 9.32 88.33 9.64C88.7033 9.96 88.89 10.3867 88.89 10.92C88.89 11.1867 88.81 11.5333 88.65 11.96C85.2367 18.84 82.3833 25.16 80.09 30.92C77.85 36.6267 76.09 41.8533 74.81 46.6C77.21 45.6933 79.77 44.9467 82.49 44.36C85.21 43.7733 87.9833 43.4267 90.81 43.32C91.5567 43.32 91.93 43.4267 91.93 43.64C91.93 43.8533 91.6633 44.0667 91.13 44.28C90.65 44.44 89.8233 44.5467 88.65 44.6C86.0367 44.76 83.53 45.1333 81.13 45.72C78.7833 46.2533 76.57 46.92 74.49 47.72C73.69 50.8133 73.0767 53.6933 72.65 56.36C72.2233 58.9733 71.9567 61.4 71.85 63.64C77.3433 62.4667 82.33 60.76 86.81 58.52C91.3433 56.2267 95.3433 53.5867 98.81 50.6C102.277 47.6133 105.183 44.52 107.53 41.32C109.023 39.2933 110.09 37.5067 110.73 35.96C111.423 34.36 111.77 32.9733 111.77 31.8C111.77 30.0933 111.237 28.76 110.17 27.8C109.103 26.7867 107.69 26.0667 105.93 25.64C104.17 25.16 102.25 24.92 100.17 24.92C97.9833 24.92 95.77 25.1333 93.53 25.56C91.29 25.9333 89.2633 26.4667 87.45 27.16C87.0233 27.2667 86.73 27.32 86.57 27.32C85.8767 27.32 85.53 27.08 85.53 26.6C85.53 26.12 85.8233 25.7467 86.41 25.48C92.97 21.7467 97.6367 18.36 100.41 15.32C103.183 12.28 104.57 9.72 104.57 7.64C104.57 5.82666 103.717 4.44 102.01 3.48C100.357 2.46666 98.17 1.96 95.45 1.96C93.3167 1.96 90.9167 2.30666 88.25 3C85.5833 3.69333 82.8367 4.81333 80.01 6.36C77.6633 7.64 75.53 9.16 73.61 10.92C71.7433 12.6267 70.1433 14.4133 68.81 16.28C67.53 18.0933 66.57 19.8267 65.93 21.48C65.29 23.08 65.05 24.44 65.21 25.56C65.21 25.6667 65.21 25.8 65.21 25.96C65.2633 26.0667 65.29 26.1733 65.29 26.28C65.29 27.6133 64.89 28.28 64.09 28.28C63.7167 28.28 63.3167 28.0133 62.89 27.48C62.5167 26.9467 62.33 26.1467 62.33 25.08C62.33 23.48 62.81 21.7733 63.77 19.96C64.7833 18.1467 66.1167 16.3333 67.77 14.52C69.4767 12.6533 71.37 10.92 73.45 9.32C75.53 7.66666 77.69 6.25333 79.93 5.08C82.81 3.53333 85.6367 2.38666 88.41 1.64C91.2367 0.89333 93.8233 0.519997 96.17 0.519997C99.4233 0.519997 102.063 1.16 104.09 2.44C106.117 3.72 107.13 5.50667 107.13 7.8C107.13 9.93333 106.09 12.4133 104.01 15.24C101.93 18.0667 98.4367 21.1867 93.53 24.6C95.1833 24.3333 96.73 24.1467 98.17 24.04C99.61 23.88 100.943 23.8 102.17 23.8C106.757 23.8 110.063 24.5733 112.09 26.12C114.17 27.6133 115.21 29.56 115.21 31.96C115.21 33.72 114.703 35.64 113.69 37.72C112.73 39.7467 111.37 41.8533 109.61 44.04C107.05 47.1867 103.823 50.2267 99.93 53.16C96.09 56.0933 91.77 58.6267 86.97 60.76C82.2233 62.8933 77.1567 64.3333 71.77 65.08C71.6633 69.8267 72.09 73.7467 73.05 76.84C74.0633 79.9333 75.3433 82.3333 76.89 84.04C78.4367 85.8 79.9833 87.0267 81.53 87.72C83.0767 88.4667 84.3567 88.84 85.37 88.84C86.1167 88.84 86.6233 88.7067 86.89 88.44C87.1033 88.1733 87.4233 88.04 87.85 88.04C88.2767 88.04 88.6767 88.2 89.05 88.52C89.4233 88.84 89.61 89.1867 89.61 89.56C89.61 89.88 89.4233 90.12 89.05 90.28C87.8767 90.76 86.7033 91 85.53 91ZM65.85 64.44C66.4367 64.44 67.0767 64.3867 67.77 64.28C68.4633 64.2267 69.21 64.1467 70.01 64.04C69.9567 61.8 70.01 59.4533 70.17 57C70.33 54.5467 70.6233 51.9867 71.05 49.32C67.6367 51.08 64.9433 53.0533 62.97 55.24C60.9967 57.3733 60.01 59.2667 60.01 60.92C60.01 61.9333 60.49 62.76 61.45 63.4C62.41 64.0933 63.8767 64.44 65.85 64.44Z" fill="white"/>
</svg>
